<svg xmlns="http://www.w3.org/2000/svg" version="1.0" width="100.0px" height="100px" viewBox="0 0 128.000000 128.000000" preserveAspectRatio="xMidYMid meet">
<metadata>
Created by potrace 1.10, written by Peter Selinger 2001-2011
</metadata>
<g transform="translate(0.000000,128.000000) scale(0.100000,-0.100000)" fill="#000000" stroke="none">
<path d="M331 986 c-47 -26 -50 -44 -51 -309 0 -269 4 -292 55 -315 16 -7 78 -12 162 -12 l136 0 144 142 143 142 0 154 0 154 -29 29 -29 29 -254 0 c-191 -1 -259 -4 -277 -14z"/>
<path d="M1045 670 c-11 -4 -31 -19 -44 -33 l-24 -26 63 -66 c35 -36 69 -65 76 -65 18 0 64 58 64 81 0 23 -72 105 -98 111 -10 3 -27 2 -37 -2z"/>
<path d="M827 462 l-107 -107 67 -67 67 -67 98 91 c55 50 104 100 109 111 10 17 2 28 -52 83 -35 35 -66 64 -69 64 -3 0 -54 -48 -113 -108z"/>
<path d="M643 215 c-37 -112 -40 -109 85 -67 l82 27 -68 68 -68 67 -31 -95z"/>
</g>
</svg>